<svg width="476" height="150" viewBox="0 0 976 297" fill="none" xmlns="http://www.w3.org/2000/svg">
<g clip-path="url(#clip0_1_13)">
<path fill-rule="evenodd" clip-rule="evenodd" d="M670.207 60.8122C740.213 51.5728 804.639 63.7853 863.486 97.4494C873.131 106.28 883.488 114.522 894.56 122.173C892.55 128.169 895.14 131.965 902.328 133.56C900.914 136.322 899.218 136.708 897.238 134.717C896.134 137.424 897.25 139.18 900.586 139.984C902.449 135.314 904.846 135.196 907.774 139.629C908.857 142.167 910.674 144.19 913.221 145.698C911.589 146.336 910.263 147.307 909.247 148.611C924.475 160.851 931.72 175.584 930.987 192.808C930.195 190.021 928.38 187.997 925.54 186.739C927.43 185.346 927.696 183.824 926.344 182.172C920.596 181.175 918.752 178.55 920.809 174.297C918.98 170.817 916.106 168.242 912.192 166.573C910.012 168.654 907.958 168.756 906.031 166.878C837.05 110.978 753.098 92.4857 654.174 111.401C640.165 114.157 626.636 118.144 613.588 123.364C613.469 120.955 613.35 118.547 613.231 116.138C606.47 118.604 599.699 120.447 592.916 121.668C595.681 119.684 598.687 118.027 601.935 116.696C603.061 114.859 602.317 113.689 599.703 113.184C595.375 114.731 591.356 116.74 587.648 119.212C580.745 115.302 580.894 111.372 588.095 107.419C586.182 105.525 584.083 104.723 581.8 105.014C589.637 101.507 594.861 96.1186 597.473 88.848C602.741 84.007 608.813 81.8965 615.69 82.5165C613.62 80.5407 614.215 78.7005 617.476 76.9958C632.763 69.016 649.06 65.4954 666.367 66.4342C668.191 64.7925 669.471 62.9185 670.207 60.8122Z" fill="black"/>
</g>
<path d="M5.28409 158V88.1818H52.9432V101.886H22.1591V116.205H49.9091V129.943H22.1591V158H5.28409ZM61.4403 158V88.1818H90.2812C95.5085 88.1818 100.02 89.125 103.815 91.0114C107.634 92.875 110.577 95.5568 112.645 99.0568C114.713 102.534 115.747 106.659 115.747 111.432C115.747 116.273 114.69 120.386 112.577 123.773C110.463 127.136 107.463 129.705 103.577 131.477C99.6903 133.227 95.0881 134.102 89.7699 134.102H71.5312V120.807H86.6335C89.179 120.807 91.304 120.477 93.0085 119.818C94.7358 119.136 96.0426 118.114 96.929 116.75C97.8153 115.364 98.2585 113.591 98.2585 111.432C98.2585 109.273 97.8153 107.489 96.929 106.08C96.0426 104.648 94.7358 103.58 93.0085 102.875C91.2813 102.148 89.1563 101.784 86.6335 101.784H78.3153V158H61.4403ZM100.747 126.091L118.134 158H99.7244L82.679 126.091H100.747ZM190.901 123.091C190.901 130.773 189.423 137.284 186.469 142.625C183.514 147.966 179.514 152.023 174.469 154.795C169.446 157.568 163.81 158.955 157.56 158.955C151.287 158.955 145.639 157.557 140.616 154.761C135.594 151.966 131.605 147.909 128.651 142.591C125.719 137.25 124.253 130.75 124.253 123.091C124.253 115.409 125.719 108.898 128.651 103.557C131.605 98.2159 135.594 94.1591 140.616 91.3864C145.639 88.6136 151.287 87.2273 157.56 87.2273C163.81 87.2273 169.446 88.6136 174.469 91.3864C179.514 94.1591 183.514 98.2159 186.469 103.557C189.423 108.898 190.901 115.409 190.901 123.091ZM173.651 123.091C173.651 118.545 173.003 114.705 171.707 111.568C170.435 108.432 168.594 106.057 166.185 104.443C163.798 102.83 160.923 102.023 157.56 102.023C154.219 102.023 151.344 102.83 148.935 104.443C146.526 106.057 144.673 108.432 143.378 111.568C142.105 114.705 141.469 118.545 141.469 123.091C141.469 127.636 142.105 131.477 143.378 134.614C144.673 137.75 146.526 140.125 148.935 141.739C151.344 143.352 154.219 144.159 157.56 144.159C160.923 144.159 163.798 143.352 166.185 141.739C168.594 140.125 170.435 137.75 171.707 134.614C173.003 131.477 173.651 127.636 173.651 123.091ZM260.173 88.1818V158H245.855L218.071 117.705H217.628V158H200.753V88.1818H215.276L242.753 128.409H243.332V88.1818H260.173ZM268.5 101.886V88.1818H327.511V101.886H306.341V158H289.705V101.886H268.5ZM335.753 158V88.1818H384.435V101.886H352.628V116.205H381.946V129.943H352.628V144.295H384.435V158H335.753ZM454.423 88.1818V158H440.105L412.321 117.705H411.878V158H395.003V88.1818H409.526L437.003 128.409H437.582V88.1818H454.423ZM490.841 158H465.034V88.1818H490.807C497.92 88.1818 504.045 89.5795 509.182 92.375C514.341 95.1477 518.318 99.1477 521.114 104.375C523.909 109.58 525.307 115.807 525.307 123.057C525.307 130.33 523.909 136.58 521.114 141.807C518.341 147.034 514.375 151.045 509.216 153.841C504.057 156.614 497.932 158 490.841 158ZM481.909 143.614H490.193C494.102 143.614 497.409 142.955 500.114 141.636C502.841 140.295 504.898 138.125 506.284 135.125C507.693 132.102 508.398 128.08 508.398 123.057C508.398 118.034 507.693 114.034 506.284 111.057C504.875 108.057 502.795 105.898 500.045 104.58C497.318 103.239 493.955 102.568 489.955 102.568H481.909V143.614Z" fill="black"/>
<path d="M431.091 274H405.284V204.182H431.057C438.17 204.182 444.295 205.58 449.432 208.375C454.591 211.148 458.568 215.148 461.364 220.375C464.159 225.58 465.557 231.807 465.557 239.057C465.557 246.33 464.159 252.58 461.364 257.807C458.591 263.034 454.625 267.045 449.466 269.841C444.307 272.614 438.182 274 431.091 274ZM422.159 259.614H430.443C434.352 259.614 437.659 258.955 440.364 257.636C443.091 256.295 445.148 254.125 446.534 251.125C447.943 248.102 448.648 244.08 448.648 239.057C448.648 234.034 447.943 230.034 446.534 227.057C445.125 224.057 443.045 221.898 440.295 220.58C437.568 219.239 434.205 218.568 430.205 218.568H422.159V259.614ZM475.409 274V204.182H524.091V217.886H492.284V232.205H521.602V245.943H492.284V260.295H524.091V274H475.409ZM550.511 204.182L566.125 255.318H566.705L582.318 204.182H601.205L577.648 274H555.182L531.625 204.182H550.511ZM608.722 274V204.182H657.403V217.886H625.597V232.205H654.915V245.943H625.597V260.295H657.403V274H608.722ZM667.972 274V204.182H684.847V260.295H713.892V274H667.972ZM785.807 239.091C785.807 246.773 784.33 253.284 781.375 258.625C778.42 263.966 774.42 268.023 769.375 270.795C764.352 273.568 758.716 274.955 752.466 274.955C746.193 274.955 740.545 273.557 735.523 270.761C730.5 267.966 726.511 263.909 723.557 258.591C720.625 253.25 719.159 246.75 719.159 239.091C719.159 231.409 720.625 224.898 723.557 219.557C726.511 214.216 730.5 210.159 735.523 207.386C740.545 204.614 746.193 203.227 752.466 203.227C758.716 203.227 764.352 204.614 769.375 207.386C774.42 210.159 778.42 214.216 781.375 219.557C784.33 224.898 785.807 231.409 785.807 239.091ZM768.557 239.091C768.557 234.545 767.909 230.705 766.614 227.568C765.341 224.432 763.5 222.057 761.091 220.443C758.705 218.83 755.83 218.023 752.466 218.023C749.125 218.023 746.25 218.83 743.841 220.443C741.432 222.057 739.58 224.432 738.284 227.568C737.011 230.705 736.375 234.545 736.375 239.091C736.375 243.636 737.011 247.477 738.284 250.614C739.58 253.75 741.432 256.125 743.841 257.739C746.25 259.352 749.125 260.159 752.466 260.159C755.83 260.159 758.705 259.352 761.091 257.739C763.5 256.125 765.341 253.75 766.614 250.614C767.909 247.477 768.557 243.636 768.557 239.091ZM795.659 274V204.182H824.5C829.727 204.182 834.239 205.205 838.034 207.25C841.852 209.273 844.795 212.102 846.864 215.739C848.932 219.352 849.966 223.557 849.966 228.352C849.966 233.17 848.909 237.386 846.795 241C844.705 244.591 841.716 247.375 837.83 249.352C833.943 251.33 829.33 252.318 823.989 252.318H806.193V239.023H820.852C823.398 239.023 825.523 238.58 827.227 237.693C828.955 236.807 830.261 235.568 831.148 233.977C832.034 232.364 832.477 230.489 832.477 228.352C832.477 226.193 832.034 224.33 831.148 222.761C830.261 221.17 828.955 219.943 827.227 219.08C825.5 218.216 823.375 217.784 820.852 217.784H812.534V274H795.659ZM858.284 274V204.182H906.966V217.886H875.159V232.205H904.477V245.943H875.159V260.295H906.966V274H858.284ZM917.534 274V204.182H946.375C951.602 204.182 956.114 205.125 959.909 207.011C963.727 208.875 966.67 211.557 968.739 215.057C970.807 218.534 971.841 222.659 971.841 227.432C971.841 232.273 970.784 236.386 968.67 239.773C966.557 243.136 963.557 245.705 959.67 247.477C955.784 249.227 951.182 250.102 945.864 250.102H927.625V236.807H942.727C945.273 236.807 947.398 236.477 949.102 235.818C950.83 235.136 952.136 234.114 953.023 232.75C953.909 231.364 954.352 229.591 954.352 227.432C954.352 225.273 953.909 223.489 953.023 222.08C952.136 220.648 950.83 219.58 949.102 218.875C947.375 218.148 945.25 217.784 942.727 217.784H934.409V274H917.534ZM956.841 242.091L974.227 274H955.818L938.773 242.091H956.841Z" fill="#FF6347"/>
<defs>
<clipPath id="clip0_1_13">
<rect width="411.266" height="180.863" fill="white" transform="translate(556 20.2724) rotate(-2.82542)"/>
</clipPath>
</defs>
</svg>
