<svg width="89" height="74" viewBox="0 0 89 74" fill="none" xmlns="http://www.w3.org/2000/svg">
<path d="M33.8276 0.630585H48.5153L49.1124 1.81294L51.2618 6.89706L53.5306 12.0994L58.5459 23.6865L58.7847 24.0412L60.6953 23.0953L64.6359 21.2035L67.9794 19.6665L70.0094 18.7206L71.6812 17.8929L74.5471 16.5923L76.4576 15.6465L83.9806 12.0994L87.3241 10.5623L87.9212 10.2076H88.3988V10.4441L86.2494 11.9812L84.5776 13.1635L82.3088 14.8188L80.3982 16.2376L78.1294 17.8929L76.2188 19.3118L71.6812 22.6224L69.6512 24.1594L68.3376 25.1053L66.0688 26.7606L64.0388 28.2976L62.7253 29.2435L60.4565 30.8988L58.5459 32.3176L57.2324 33.2635L53.8888 35.7465L49.8288 38.7024L48.2765 39.8847L41.9476 44.4959L38.1265 47.3335L36.8129 48.2794L35.38 49.3435L33.1112 50.9988L31.5588 52.1812L29.4094 53.7182L27.8571 54.9006L23.3194 58.2112L21.4088 59.63L19.14 61.2853L13.8859 65.1871L12.5724 66.1329L10.3035 67.7882L7.91529 69.5618L3.37765 72.8724L2.42235 73.5818L1.58647 67.0788L0.272942 57.8565L0.0341187 55.8465V55.2553L6.72118 51.7082L9.34824 50.2894L13.4082 48.1612L16.0353 46.7424L25.3494 41.7765L27.9765 40.3576L31.32 38.5841L33.9471 37.1653L40.3953 33.7365L43.1418 32.1994L45.4106 31.0171L45.2912 30.4259L43.7388 26.6424L41.9476 22.3859L40.9924 20.1394L40.7535 20.0212L40.3953 21.0853L38.2459 26.2876L36.9324 29.48L35.9771 30.0712L32.6335 31.8447L29.8871 33.2635L27.26 34.6824L24.0359 36.3376L21.4088 37.7565L17.9459 39.53L16.6324 40.2394L16.7518 39.7665L18.1847 36.4559L20.9312 30.0712L22.4835 26.5241L28.2153 13.2818L31.6782 5.36L33.2306 1.81294L33.8276 0.630585Z" fill="#35D589"/>
<path d="M63.4418 35.9829L63.8 36.1012L65.5912 40.2394L67.86 45.56L71.92 55.0188L73.2335 58.0929L74.7859 61.7582L76.8159 66.4876L78.7265 70.9806L79.5623 72.7541V73.1088L79.0847 72.8724L78.01 71.8082L77.1741 70.8624L68.5765 62.3494V62.1129L68.2182 61.9947L67.3823 61.0488L59.2623 53.0088L58.4265 52.0629L51.5006 45.2053L51.1423 44.9688V44.7324L52.4559 43.9047L54.6053 42.3676L56.8741 40.7124L58.9041 39.2935L61.1729 37.6382L63.2029 36.2194L63.4418 35.9829Z" fill="#35D589"/>
</svg>
